<?xml version="1.0" encoding="UTF-8"?>
<svg width="96px" height="133px" viewBox="0 0 96 133" version="1.1" xmlns="http://www.w3.org/2000/svg" xmlns:xlink="http://www.w3.org/1999/xlink">
    <!-- Generator: Sketch 53.2 (72643) - https://sketchapp.com -->
    <title>Fill 36</title>
    <desc>Created with Sketch.</desc>
    <g id="Page-1" stroke="none" stroke-width="1" fill="none" fill-rule="evenodd">
        <path d="M20.0234932,50.638 C20.0234932,50.638 29.3804734,55.151 27.9610354,61.668 C27.9610354,61.668 69.6427458,22.813 48.0933027,0 C48.0933027,0 93.4587656,6.267 76.4458687,78.464 C76.4458687,78.464 87.7877999,75.706 87.7877999,68.938 C87.7877999,68.938 113.019865,92.252 75.0275618,130.105 C75.0275618,130.105 79.2813515,116.065 70.4921465,106.54 C70.4921465,106.54 69.3599893,124.591 58.5835712,126.847 C58.5835712,126.847 39.8684798,102.53 58.8663277,73.2 C58.8663277,73.2 13.5019959,94.508 29.8057393,132.236 C29.8057393,132.236 -30.1624035,102.53 20.0234932,50.638 Z" id="Fill-36" fill="#eb4d48"></path>
    </g>
</svg>