<?xml version="1.0" encoding="UTF-8"?>
<svg width="65px" height="102px" viewBox="0 0 65 102" version="1.1" xmlns="http://www.w3.org/2000/svg" xmlns:xlink="http://www.w3.org/1999/xlink">
    <!-- Generator: Sketch 53.2 (72643) - https://sketchapp.com -->
    <title>Fill 36</title>
    <desc>Created with Sketch.</desc>
    <g id="Page-1" stroke="none" stroke-width="1" fill="none" fill-rule="evenodd">
        <path d="M20.1809693,101.2662 C20.1809693,101.2662 -20.4224607,78.5173739 13.5575735,38.7785309 C13.5575735,38.7785309 19.8930289,42.2345819 18.9319511,47.2252942 C18.9319511,47.2252942 47.1539425,17.4701731 32.5631737,0 C32.5631737,0 63.2793725,4.79926248 51.7602236,60.0876546 C51.7602236,60.0876546 59.4396562,57.9755809 59.4396562,52.7926531 C59.4396562,52.7926531 76.5238666,70.6464915 50.7999116,99.6342819 C50.7999116,99.6342819 53.6800818,88.8824636 47.7290575,81.5882279 C47.7290575,81.5882279 46.9624927,95.4116661 39.6659596,97.1393087 C39.6659596,97.1393087 26.9942832,78.5173739 39.8574094,56.0564885 C39.8574094,56.0564885 9.14197636,72.3741341 20.1809693,101.2662" id="Fill-36" fill="#FF8A00"></path>
    </g>
</svg>